<?xml version="1.0" encoding="UTF-8" standalone="no"?>
<!-- Created with Inkscape (http://www.inkscape.org/) -->

<svg
   version="1.1"
   id="svg1"
   width="2160.7991"
   height="844.22675"
   viewBox="0 0 2160.7991 844.22675"
   sodipodi:docname="logo.svg"
   inkscape:version="1.3.2 (091e20e, 2023-11-25)"
   xmlns:inkscape="http://www.inkscape.org/namespaces/inkscape"
   xmlns:sodipodi="http://sodipodi.sourceforge.net/DTD/sodipodi-0.dtd"
   xmlns="http://www.w3.org/2000/svg"
   xmlns:svg="http://www.w3.org/2000/svg">
  <defs
     id="defs1" />
  <sodipodi:namedview
     id="namedview1"
     pagecolor="#ffffff"
     bordercolor="#111111"
     borderopacity="1"
     inkscape:showpageshadow="0"
     inkscape:pageopacity="0"
     inkscape:pagecheckerboard="1"
     inkscape:deskcolor="#d1d1d1"
     inkscape:zoom="0.45309454"
     inkscape:cx="747.08471"
     inkscape:cy="439.20194"
     inkscape:window-width="2560"
     inkscape:window-height="1021"
     inkscape:window-x="0"
     inkscape:window-y="31"
     inkscape:window-maximized="1"
     inkscape:current-layer="g1" />
  <g
     inkscape:groupmode="layer"
     inkscape:label="Image"
     id="g1"
     transform="translate(-327.16465,-328.55172)">
    <path
       style="fill:#004455"
       d="m 600,1171.1589 c -14.5704,-4.1451 -56.09752,-24.2161 -81.5,-39.3907 C 411.16371,1067.6489 346.2722,984.5199 330.94372,891.5 327.57949,871.08444 326.92536,838.56704 327.23224,707 l 0.2904,-124.5 2.24306,-5.91927 c 4.7179,-12.45023 11.16324,-19.78073 21.74678,-24.73336 5.17375,-2.4211 9.28768,-3.23892 26.91566,-5.35067 27.09752,-3.24617 36.99612,-4.82719 60.57186,-9.67467 48.67846,-10.00893 87.03757,-22.65084 134.57516,-44.35157 26.34301,-12.02549 30.78623,-13.47473 41.23444,-13.44937 10.51561,0.0255 13.40831,0.97982 43.27698,14.27706 17.17258,7.64505 44.31898,18.66079 59.34386,24.08114 1.65606,0.59744 1.22765,1.16971 -3.01414,4.02629 -17.86832,12.03323 -24.10568,34.30314 -15.1106,53.95097 2.35538,5.14483 10.6449,14.47628 14.86736,16.73607 1.93691,1.0366 2.06043,0.93068 1.43338,-1.22913 -6.50912,-22.42004 2.19395,-43.78177 21.73551,-53.34994 6.89241,-3.37474 19.08437,-6.05466 22.16568,-4.87225 2.67471,1.02639 29.15982,-1.63068 36.35498,-3.64724 26.0643,-7.30494 44.63205,-22.35181 58.01334,-47.01266 l 3.92371,-7.23114 0.72346,8.685 c 1.23093,14.77719 -1.32912,31.45212 -7.53277,49.06474 -9.09637,25.82529 -13.02498,29.2886 -44.79761,39.49186 -17.69223,5.68156 -25.66034,10.02292 -31.17454,16.98516 -11.9661,15.10844 -10.97147,37.12135 2.29774,50.8528 6.25623,6.47416 10.62225,8.59811 28.18406,13.71074 8.8,2.56187 19.15,6.10917 23,7.8829 11.86648,5.46697 15.57827,11.35135 24.01824,38.07654 6.01022,19.03138 8.19312,23.85995 13.47078,29.79733 C 872.61752,736.75442 885.09735,742 896.2101,742 H 901 l 0.0376,4.75 c 0.0207,2.6125 0.0603,30.85 0.0879,62.75 0.0599,69.21971 -0.51525,76.32126 -8.70714,107.5 -17.92067,68.20696 -64.20901,131.11 -135.14838,183.6586 -15.45396,11.4475 -39.79545,27.4011 -54.77002,35.8965 -17.12581,9.7159 -58.60208,29.8328 -68.01834,32.9903 -10.7393,3.6012 -25.12822,4.2745 -34.48166,1.6135 z M 829.20753,799.1112 c 6.43922,-2.44819 11.63376,-11.81318 10.34954,-18.65867 -1.56481,-8.34114 -10.74394,-15.27255 -18.49169,-13.96358 -8.152,1.37727 -15.06538,9.0409 -15.06538,16.70029 0,5.30194 3.8944,11.96374 8.5,14.54019 4.18855,2.34315 10.59567,2.94509 14.70753,1.38177 z M 714.38365,783.12856 c 0.83225,-0.91962 3.07899,-6.83726 4.99276,-13.1503 7.81603,-25.78317 10.44852,-28.42339 37.04974,-37.15845 18.13387,-4.96028 21.92715,-11.3361 -0.42615,-18.84688 -24.17552,-7.38018 -29.48454,-12.83664 -36.95421,-37.98051 -3.46602,-11.66704 -4.3696,-13.56016 -7.19359,-15.07152 -1.70045,-0.91006 -2.60297,-0.75087 -4.72491,0.83338 -2.04999,1.53055 -3.41336,4.58214 -6.24143,13.97012 -4.48144,14.87648 -7.64773,21.78175 -12.00848,26.18896 -4.26004,4.30544 -14.52194,9.06416 -27.31796,12.66809 C 651.41596,717.4383 648,719.53124 648,722.88922 c 0,3.66551 3.49936,5.90933 15,9.61812 25.7896,8.31676 30.35019,12.76732 37.04641,36.15262 1.70719,5.96202 3.62463,11.90569 4.26098,13.20816 2.00945,4.11289 6.937,4.72928 10.07626,1.26044 z M 617.78057,658.75 c 0.564,-0.6875 2.0292,-4.625 3.25599,-8.75 3.24996,-10.92772 6.65503,-17.642 10.25703,-20.22529 1.74444,-1.25109 7.8613,-3.84971 13.59301,-5.77471 16.06952,-5.39696 16.28449,-8.39339 0.96545,-13.45754 -16.25485,-5.37352 -18.83286,-7.97898 -24.38668,-24.64638 -2.77415,-8.32542 -4.08332,-10.95743 -5.70652,-11.47262 -2.91412,-0.9249 -4.13153,1.05723 -7.69584,12.52999 -4.91159,15.80933 -7.35559,18.21255 -24.04524,23.64399 -16.77214,5.03207 -13.8962,9.34733 0.26054,13.05109 16.61675,5.47759 19.21379,8.14207 24.2224,24.85147 2.95918,9.87223 3.87912,11.5 6.49929,11.5 0.96531,0 2.21657,-0.5625 2.78057,-1.25 z M 1363,854.56144 c -21.4854,-4.51373 -43.5995,-20.09795 -54.2108,-38.20326 -8.9678,-15.30131 -12.187,-27.87658 -12.1235,-47.35818 0.04,-12.35932 0.4336,-15.95727 2.6639,-24.3709 3.4167,-12.88947 8.2703,-22.5213 16.4923,-32.72828 15.9988,-19.8613 36.1179,-29.5363 63.6781,-30.62191 24.7387,-0.97448 45.5393,6.00083 60.179,20.18052 4.9484,4.79289 5.321,5.48424 5.321,9.87348 0,4.24431 -0.4431,5.1628 -4.3987,9.11844 -7.247,7.24703 -13.6973,7.77643 -21.3795,1.75468 -11.831,-9.27393 -20.7827,-12.50638 -34.7218,-12.53796 -16.4993,-0.0374 -28.5302,4.72874 -39.361,15.59317 -22.8385,22.90928 -22.906,63.7021 -0.1438,86.8553 19.4858,19.82047 51.4131,21.36381 73.1853,3.53773 3.1243,-2.55801 6.8806,-5.10721 8.3475,-5.6649 6.3443,-2.4121 17.4478,4.49321 19.504,12.12964 1.4553,5.40433 -0.8496,9.91042 -7.9525,15.54731 -6.7289,5.34008 -23.3156,13.71706 -31.5795,15.949 -8.2206,2.22024 -34.6944,2.79604 -43.5,0.94612 z m 505.4109,0.0227 c -18.1271,-4.14662 -32.3958,-18.16781 -36.3233,-35.69348 -1.5984,-7.13216 -1.8533,-79.85405 -0.2897,-82.63032 2.233,-3.96488 6.7179,-5.5034 14.8459,-5.09295 6.4242,0.3244 7.6959,0.71748 10.1027,3.12272 l 2.7535,2.7516 0.5073,36.72914 c 0.5507,39.87286 0.5766,40.06162 6.5816,47.93454 5.0179,6.57882 15.0225,9.5469 24.509,7.27112 4.0496,-0.97149 6.3694,-2.34854 9.8942,-5.87341 7.5154,-7.51541 8.0079,-10.55651 8.0079,-49.45083 0,-36.91268 0.2653,-38.61171 6.4319,-41.18827 1.9271,-0.80521 6.4362,-1.46401 10.0202,-1.46401 5.7862,0 6.8823,0.32686 9.7821,2.91704 l 3.2658,2.91704 0.285,37.02612 c 0.2363,30.69799 0.019,38.1723 -1.2703,43.73251 -4.2117,18.1607 -14.9931,30.31592 -31.5147,35.53063 -8.5099,2.68597 -28.7881,3.47404 -37.5891,1.46081 z m 134.937,-0.004 c -13.8234,-3.35306 -29.1015,-15.83503 -35.2322,-28.78427 -9.8063,-20.71274 -9.5603,-47.59814 0.6149,-67.18337 4.5867,-8.82848 14.526,-18.98841 22.8509,-23.35806 19.1597,-10.05677 43.8203,-7.8241 58.3256,5.28055 2.1094,1.90573 4.0996,3.46496 4.4226,3.46496 0.323,0 0.7185,-13.76247 0.8788,-30.58326 l 0.2915,-30.58326 3.2658,-2.91674 c 2.9859,-2.66677 3.9016,-2.91674 10.6849,-2.91674 4.0805,0 8.5518,0.43067 9.9363,0.95704 5.7815,2.19814 5.613,-0.45866 5.613,88.47752 v 81.53389 l -2.75,3.06065 c -2.4438,2.71989 -3.5294,3.11879 -9.75,3.58274 -5.5513,0.41403 -7.7221,0.14604 -10.4893,-1.29488 -3.3789,-1.75952 -3.8819,-2.65432 -5.7021,-10.14466 l -0.8086,-3.32769 -4.5,4.09732 c -5.5777,5.07854 -14.7823,9.72693 -21.8865,11.05279 -7.1415,1.33283 -19.3732,1.13604 -25.7656,-0.41453 z m 34.1219,-28.02162 c 13.7548,-6.72957 20.8186,-23.59633 17.6067,-42.04042 -2.1833,-12.53787 -7.7072,-20.67839 -17.2763,-25.46012 -5.4078,-2.70234 -7.1188,-3.05689 -14.7099,-3.04826 -6.947,0.008 -9.5468,0.46271 -13.5903,2.37754 -26.9987,12.78533 -23.2757,62.21756 5.2923,70.27037 6.9095,1.94765 16.1555,1.09181 22.6775,-2.09911 z m 174.5024,28.08289 c -10.014,-2.15747 -19.2224,-9.27327 -22.7354,-17.56873 -3.8775,-9.1563 -4.2128,-12.87273 -4.2249,-46.82273 L 2185,757 h -6.5321 c -8.9093,0 -12.9187,-1.80598 -14.4744,-6.51981 -1.8835,-5.7068 -0.7985,-13.12977 2.3843,-16.31254 2.3446,-2.34458 3.5858,-2.69658 10.6382,-3.01685 L 2185,730.78823 V 716.34446 C 2185,696.10281 2186.4774,694 2200.6989,694 c 6.7894,0 11.4792,1.71185 12.9117,4.71301 0.4691,0.98285 1.0862,8.76128 1.3712,17.28542 l 0.5182,15.49843 11.2082,-0.33978 c 17.9273,-0.54347 21.2918,1.73003 21.2918,14.38772 0,4.86614 -0.3872,5.9962 -2.9231,8.53212 L 2242.1538,757 h -13.6167 -13.6168 l 0.2899,31.92847 c 0.2763,30.43925 0.3861,32.06006 2.3543,34.75 1.1355,1.55184 3.7616,3.66454 5.8358,4.69489 3.3913,1.68456 4.5031,1.7553 11.033,0.70192 8.8718,-1.43118 11.8516,-0.3973 14.6469,5.08194 3.545,6.94882 1.7768,15.32116 -3.8471,18.2155 -6.3554,3.27079 -23.2583,4.42374 -33.2609,2.26874 z M 2308,854.50854 c -14.9496,-3.35045 -30.433,-14.53966 -37.9468,-27.42259 C 2263.2409,815.40576 2261.5,808.46785 2261.5,793 c 0,-11.4356 0.3544,-14.57043 2.3173,-20.5 7.2633,-21.94088 24.9565,-37.73723 47.1622,-42.10592 9.913,-1.95025 24.2511,-1.44534 33.0205,1.16282 26.7939,7.96897 44.4643,32.50538 44.2495,61.4431 -0.2129,28.68254 -15.8389,51.41803 -41.2495,60.01705 -8.5042,2.87785 -29.2705,3.67203 -39,1.49149 z m 28.2614,-27.08194 c 6.756,-2.30199 14.0364,-9.25489 17.8923,-17.08725 2.6277,-5.33751 3.2947,-8.05104 3.6519,-14.85622 0.8555,-16.2997 -5.9381,-29.66194 -18.2929,-35.98046 -5.2495,-2.68469 -6.8319,-3.00267 -14.942,-3.00267 -7.915,0 -9.7987,0.35752 -14.7851,2.80615 -21.4184,10.51776 -25.4157,45.52619 -7.0447,61.697 9.8391,8.66069 20.7937,10.7599 33.5205,6.42345 z m -1229.247,26.60332 c -1.9171,-0.48053 -4.7296,-2.26595 -6.25,-3.96758 l -2.7644,-3.09389 0.015,-77.23423 c 0.011,-59.30773 0.3015,-77.79211 1.25,-79.63782 2.4755,-4.8168 6.2682,-6.5964 14.0583,-6.5964 8.9121,0 11.6529,0.74865 15.002,4.09776 1.4511,1.45104 14.4254,21.94639 28.8318,45.5452 14.4064,23.59882 26.5554,42.78322 26.9978,42.63199 0.8743,-0.29889 2.2234,-2.45562 33.8853,-54.17061 20.5702,-33.59843 21.5291,-34.96851 25.7947,-36.85536 3.3968,-1.50258 6.0247,-1.86961 11.2658,-1.57346 7.3606,0.4159 11.3263,2.42888 13.6349,6.92088 0.9483,1.84536 1.2386,20.24042 1.25,79.20326 0.016,84.61363 0.2769,81.0823 -6.1881,83.80949 -4.7502,2.00379 -15.8834,1.71959 -19.2582,-0.49162 -5.5613,-3.64391 -5.5988,-4.06599 -5.3069,-59.62849 0.1473,-28.04422 0.043,-50.97409 -0.2321,-50.95525 -0.275,0.0188 -4.2325,6.20644 -8.7945,13.75023 -29.6083,48.961 -32.7062,53.61325 -37.2673,55.96598 -2.3991,1.2375 -5.6424,2.25 -7.2073,2.25 -5.2501,0 -11.5166,-2.16629 -14.0134,-4.84437 -1.3618,-1.4606 -7.6114,-10.98063 -13.8882,-21.15563 -15.5859,-25.26578 -28.227,-44.99688 -28.8293,-44.99892 -0.275,-9.3e-4 -0.3877,23.06095 -0.2504,51.24861 0.267,54.80598 0.3182,54.18124 -4.7496,57.88421 -2.9306,2.14133 -11.9779,3.15124 -16.9856,1.89602 z m 369.8135,-0.59495 c -7.1349,-3.08302 -6.8296,0.70688 -6.8132,-84.5861 0.011,-58.60507 0.3019,-76.90748 1.25,-78.75247 2.9451,-5.73064 3.7938,-5.88542 34.9992,-6.38326 31.7972,-0.50728 41.7506,0.1303 51.2179,3.28081 7.609,2.53212 18.9555,10.25504 23.8107,16.20665 4.6673,5.72125 9.232,15.0216 10.7236,21.84902 1.8492,8.46412 0.8584,27.03138 -1.8364,34.41125 -4.5486,12.45694 -13.4902,22.61671 -24.6797,28.04208 -11.9013,5.77046 -16.658,6.59274 -41.75,7.21703 l -22.75,0.56602 -0.056,24.107 c -0.061,26.02778 -0.6058,29.55752 -5.0734,32.86884 -3.612,2.67718 -14.0704,3.32149 -19.0423,1.17313 z m 67.3774,-87.98925 c 5.7604,-1.96277 12.213,-7.44241 15.0764,-12.80317 1.8369,-3.43887 2.2132,-5.75628 2.2155,-13.64255 0,-8.56476 -0.2678,-9.96037 -2.7462,-14.17638 -3.5773,-6.08541 -9.0317,-10.51732 -15.2136,-12.36158 -3.139,-0.93648 -11.8662,-1.71743 -23.75,-2.12527 L 1501,709.69201 v 28.654 V 767 h 19.3219 c 14.8516,0 20.3772,-0.35959 23.8834,-1.55428 z m 120.9178,88.59398 c -1.8573,-0.46146 -4.5198,-1.9819 -5.9167,-3.37876 -4.0174,-4.01743 -3.3883,-8.86291 3.267,-25.16094 3.1443,-7.7 11.5552,-28.57615 18.6909,-46.39145 15.2219,-38.00363 34.2742,-84.07606 36.8955,-89.22094 2.7948,-5.48565 7.246,-7.15334 17.9713,-6.73327 13.9697,0.54713 14.1404,0.75552 27.3096,33.34566 4.6672,11.55 12.3953,30.45 17.1737,42 11.1491,26.94886 27.9112,67.87855 31.6936,77.38949 3.3605,8.44979 3.1474,11.04197 -1.245,15.14504 -5.7571,5.37796 -20.1338,4.85434 -24.9816,-0.90985 -1.3852,-1.64707 -5.3873,-10.22393 -8.8935,-19.05968 L 1770.7129,815 h -36.2399 -36.2398 l -0.5381,2.25 c -0.7673,3.20837 -8.3346,23.3453 -10.9291,29.08276 -1.2302,2.72056 -3.2961,5.40713 -4.7267,6.14694 -3.3772,1.7464 -12.7041,2.60652 -16.9162,1.56 z m 94.2536,-66.02971 c 1.0207,-0.383 -1.0395,-6.48617 -8.2736,-24.50999 -5.298,-13.2 -11.155,-28.04494 -13.0155,-32.98876 l -3.3828,-8.98876 -1.3117,2.98876 c -0.7215,1.64382 -6.0725,15.36376 -11.8911,30.48876 -5.8185,15.125 -11.0118,28.53367 -11.5406,29.79705 -0.5288,1.26338 -0.9614,2.76935 -0.9614,3.34661 0,1.06488 47.5187,0.9388 50.3767,-0.13367 z m 364.0682,65.98111 c -1.6803,-0.521 -4.1553,-2.11839 -5.5,-3.54975 l -2.4449,-2.60248 v -55.50146 -55.50147 l 3.1866,-2.84718 c 5.8417,-5.2196 18.2658,-5.19016 23.5117,0.0557 l 2.8017,2.80167 v 54.51183 c 0,32.22321 -0.3906,55.53925 -0.9554,57.02462 -0.5254,1.38204 -2.0843,3.25255 -3.4642,4.15669 -2.9807,1.95302 -12.8282,2.78736 -17.1355,1.45181 z m 297.0551,0.12191 c -4.8282,-1.23233 -7.1476,-2.84795 -8.3881,-5.84295 -0.8469,-2.0445 -1.0877,-17.6887 -0.8872,-57.62529 l 0.2753,-54.8189 2.8058,-2.41294 c 2.4189,-2.08024 3.8256,-2.41293 10.2029,-2.41293 11.8217,0 14.4913,2.28077 14.4913,12.38039 0,2.90745 0.298,5.58431 0.6623,5.94858 0.3643,0.36427 2.1367,-1.5271 3.9388,-4.20305 7.0828,-10.51731 16.388,-15.60439 28.3989,-15.52538 7.0711,0.0465 11.8363,1.89997 14.4393,5.61625 2.0711,2.95693 2.0223,12.00825 -0.089,16.45697 -2.6171,5.51525 -5.1208,6.58346 -15.0343,6.41459 -14.1076,-0.24031 -20.764,4.09687 -27.1282,17.67619 l -2.688,5.73546 -0.5114,33 c -0.2812,18.15 -0.8815,33.7605 -1.3339,34.69001 -0.4525,0.9295 -1.8292,2.34955 -3.0595,3.15566 -2.7351,1.79209 -12.0086,2.81038 -16.0952,1.76734 z M 951.26013,733.54093 c -15.93218,-7.41757 -16.07761,-31.19951 -0.24027,-39.29093 21.86403,-11.17051 42.23834,18.94225 24.32172,35.94695 -6.47538,6.1458 -15.40121,7.38525 -24.08145,3.34398 z m -63.54472,-22.92888 c -1.83479,-1.70042 -3.61707,-5.80317 -6.19036,-14.25 -11.66562,-38.2924 -15.84235,-46.07031 -29.84667,-55.58045 -8.40775,-5.7096 -18.1193,-9.50446 -44.17838,-17.26302 -9.87998,-2.94156 -12.44174,-5.03832 -12.47776,-10.21282 -0.0423,-6.08234 2.74516,-7.78832 23.97776,-14.67466 43.23944,-14.02379 47.4761,-18.62103 62.50412,-67.82396 C 885.34274,518.23921 888.40435,514 893.64247,514 c 6.24448,0 8.24727,3.28507 14.32708,23.5 5.91599,19.67022 9.3891,28.22295 14.36343,35.37077 7.90597,11.36042 17.25798,16.47794 47.99902,26.26559 8.87227,2.82485 16.92727,5.63312 17.89999,6.24059 3.16807,1.9785 4.89364,6.96421 3.64752,10.53884 -1.36197,3.90695 -4.94136,5.81154 -18.87951,10.04575 -36.07016,10.95761 -46.09271,17.30371 -54.54735,34.53846 -2.42827,4.95 -6.95474,17.31417 -10.05882,27.47594 -6.08618,19.92414 -7.0886,22.10833 -10.95491,23.86993 -3.88445,1.76988 -6.89461,1.38792 -9.72351,-1.23382 z M 2122.5,711.33837 c -9.9189,-5.22909 -13.3838,-15.6887 -8.2183,-24.8088 9.1745,-16.19853 34.7183,-10.03799 34.7183,8.37321 0,7.4015 -4.1805,13.92321 -10.7179,16.72038 -4.262,1.82358 -12.0494,1.68305 -15.7821,-0.28479 z M 1007.6422,561.49934 c -0.8254,-0.82537 -2.225,-4.08787 -3.1104,-7.25 -3.5194,-12.57012 -7.17757,-21.92893 -10.06224,-25.74277 -3.84267,-5.08044 -12.20451,-9.57048 -24.46161,-13.13512 C 958.69879,512.08249 956,510.55957 956,507.46678 c 0,-4.57899 1.12375,-5.30013 15.50942,-9.95286 21.2574,-6.87524 24.41941,-10.26525 31.59578,-33.87399 2.4225,-7.96955 3.9125,-11.26062 5.598,-12.36501 3.9074,-2.56024 6.531,0.12341 9.1688,9.37881 6.2841,22.04867 10.4517,28.21288 22.4521,33.20868 3.9545,1.64625 10.1747,3.74293 13.8228,4.65929 16.627,4.17658 17.356,10.95064 1.6634,15.4569 -24.7143,7.09692 -29.3858,11.53345 -36.2959,34.47041 -1.9799,6.57195 -4.0857,12.53445 -4.6796,13.25 -1.4558,1.75412 -5.3468,1.64611 -7.1926,-0.19967 z M 794.45828,482.57667 c -0.87331,-1.33284 -3.39435,-8.39046 -5.60232,-15.68361 C 779.99784,437.63375 775.97299,433.70681 745.44363,424.5367 733.12255,420.83582 730,418.82274 730,414.58035 c 0,-4.19685 2.39443,-5.65532 15.94545,-9.71252 30.27078,-9.06314 33.72165,-12.71677 44.7391,-47.36783 l 3.81545,-12 c 2.76849,-6.97743 6.33062,-5.57063 9.19068,0.70049 0.37671,0.82599 2.92943,7.36363 5.26592,14.77534 5.05805,16.04488 10.69225,27.70767 15.23527,31.53698 4.62537,3.89871 13.86092,7.8506 29.18249,12.48719 13.23205,4.00427 15.62564,5.47182 15.62564,9.58035 0,4.15815 -3.09864,6.35019 -12.52124,8.8578 -11.72358,3.11995 -23.63113,7.88258 -29.07843,11.63042 -8.13765,5.59885 -10.9677,10.8233 -18.01992,33.26586 -2.44822,7.79106 -5.19636,14.72807 -6.10699,15.41557 -2.772,2.09279 -7.04802,1.52364 -8.81514,-1.17333 z M 687.66359,471.88758 c -5.11464,-2.69839 -8.08489,-9.15125 -7.4161,-16.11146 0.5293,-5.50855 2.79265,-9.14823 7.84446,-12.61462 2.84501,-1.95216 4.36023,-2.27187 9.17149,-1.93522 6.71713,0.47002 10.18631,2.62509 13.47011,8.36774 4.31362,7.54356 2.21782,17.56045 -4.63143,22.13605 -4.46064,2.97989 -12.9514,3.05243 -18.43853,0.15751 z m 235.79559,-19.25346 c -0.84606,-4.50989 0.12144,-15.75752 2.1033,-24.45174 4.89805,-21.48736 21.56544,-42.80062 41.14019,-52.60764 15.34609,-7.68844 28.16697,-6.62211 36.10043,3.00252 8.5736,10.40134 6.2851,26.70363 -4.77637,34.02375 -3.42377,2.26574 -5.5423,2.73557 -15.74147,3.49098 -14.50616,1.07442 -16.1765,1.42263 -24.22042,5.04921 -12.03368,5.42536 -23.04454,16.07478 -30.81714,29.80554 l -3.08325,5.44675 z m -30.05852,-86.71386 c -3.87575,-1.12466 -9.4696,-6.75025 -11.05023,-11.11292 -4.15272,-11.46187 2.33012,-23.35363 14.0587,-25.78848 12.6699,-2.63026 23.54695,6.13771 23.54695,18.98114 0,4.94946 -2.60033,11.54695 -5.60145,14.21186 -4.82512,4.28458 -13.61032,5.83937 -20.95397,3.7084 z"
       id="path1"
       sodipodi:nodetypes="sssscsssssssssssssssscsssssssssscsssssssssssssssssssssssssssssssssssssccssssssssssssssssssssssssssscsssssssscscssssssssscsssscsssscssssssssssssscsssscsssscssscccsssssssssssssssssssssssssssccssssssssscssssssssssssssssssssssssccssssscssscccsssssssssssssscccssssssscssssssscccsscsssssssscsssssssssscssssssssssssssssssssssssssssssssscssssssssssssssssssscssssssssssssssssssssssssscsssssss" />
  </g>
</svg>
